<?xml version="1.0" encoding="UTF-8" standalone="no"?>
<svg width="16px" height="16px" viewBox="0 0 16 16" version="1.1" xmlns="http://www.w3.org/2000/svg" xmlns:xlink="http://www.w3.org/1999/xlink">
    <!-- Generator: sketchtool 39.1 (31720) - http://www.bohemiancoding.com/sketch -->
    <title>5515C463-D610-4FED-AD14-AA86F48498D7</title>
    <desc>Created with sketchtool.</desc>
    <defs></defs>
    <g id="Index-Blog" stroke="none" stroke-width="1" fill="none" fill-rule="evenodd">
        <g id="1.-Index---Rev" transform="translate(-1090.000000, -1800.000000)">
            <g id="Group-3" transform="translate(876.000000, 1757.000000)">
                <g id="Group-8" transform="translate(1.000000, 28.000000)">
                    <g id="Group-7" transform="translate(177.000000, -1.000000)">
                        <g id="Vidio" transform="translate(34.000000, 14.000000)">
                            <rect id="Rectangle-30" x="0" y="0" width="20" height="20"></rect>
                            <path d="M13.7082257,3.71448613 C13.7082257,4.66905672 14.4423574,5.42897226 15.3646396,5.42897226 C15.4400877,5.42897226 15.5152227,5.42897226 15.6094545,5.40931654 C15.7033732,5.66262172 15.7412538,5.95492132 15.7412538,6.28621533 C15.7412538,8.76029998 13.3128277,13.0465153 10.3199499,15.1309728 L10.8847147,10.4747861 C11.411599,6.26655961 9.94364874,3.50017537 6.49870862,3.50017537 C3.99514753,3.50017537 2,5.5846329 2,8.1370234 C2,10.7084356 4.01424435,12.8905377 6.79987477,12.3255942 L6.25420678,9.55920994 C5.31282774,9.61754304 4.39054551,8.76029998 4.39054551,7.57207993 C4.39054551,6.48087038 5.25647648,5.5846329 6.31055803,5.5846329 C7.25162401,5.5846329 8.66353604,6.26655961 8.26813806,9.57854863 L7.27072083,17.7220407 L9.56703452,17.7220407 C14.1411912,15.4816055 18,9.5005598 18,5.52629979 C18,3.53916978 17.0022697,2 15.3646396,2 C14.4423574,2 13.7082257,2.75991554 13.7082257,3.71448613" id="logo" fill="#BCBCBC"></path>
                        </g>
                    </g>
                </g>
            </g>
        </g>
    </g>
</svg>