<?xml version="1.0" encoding="UTF-8" standalone="no"?>
<svg width="20px" height="20px" viewBox="0 0 20 20" version="1.1" xmlns="http://www.w3.org/2000/svg" xmlns:xlink="http://www.w3.org/1999/xlink">
    <!-- Generator: sketchtool 39.1 (31720) - http://www.bohemiancoding.com/sketch -->
    <title>714441AD-0D60-426A-AD87-2EB77BFEF971</title>
    <desc>Created with sketchtool.</desc>
    <defs></defs>
    <g id="Index-Blog" stroke="none" stroke-width="1" fill="none" fill-rule="evenodd">
        <g id="1.-Index---Rev" transform="translate(-976.000000, -258.000000)">
            <g id="Group-18" transform="translate(876.000000, 199.000000)">
                <g id="Icon-Facebook" transform="translate(97.750000, 57.000000)">
                    <rect id="Rectangle-31" x="0" y="0" width="24" height="24"></rect>
                    <path d="M12,21.6952 L2.4,21.6952 L2.4,2.4056 L21.6,2.4056 L21.6,21.6952 L15.2,21.6952 L15.2,15.2648 L18.4,15.2648 L18.4,12.0504 L15.2,12.0504 L15.2,9.6824 C15.2,8.0328 18.4,8.836 18.4,8.836 L18.4,5.6216 C15.2,5.6216 14.3424,5.6888 13.6,6.4248 C12.8576,7.1608 12,8.348 12,9.6824 L12,12.0504 L8.8,12.0504 L8.8,15.2648 L12,15.2648 C12,15.2648 11.8208,19.148 12,21.6952" id="Page-1" fill="#2865A6"></path>
                </g>
            </g>
        </g>
    </g>
</svg>