<?xml version="1.0" encoding="UTF-8" standalone="no"?>
<svg width="22px" height="22px" viewBox="0 0 22 22" version="1.1" xmlns="http://www.w3.org/2000/svg" xmlns:xlink="http://www.w3.org/1999/xlink">
    <!-- Generator: sketchtool 39.1 (31720) - http://www.bohemiancoding.com/sketch -->
    <title>EB26FF0D-86F7-4D9C-9BCA-010A1386DA56</title>
    <desc>Created with sketchtool.</desc>
    <defs></defs>
    <g id="Index-Blog" stroke="none" stroke-width="1" fill="none" fill-rule="evenodd">
        <g id="1.-Index---Rev" transform="translate(-1178.000000, -256.000000)">
            <g id="Group-18" transform="translate(876.000000, 199.000000)">
                <g id="RSS" transform="translate(301.000000, 56.000000)">
                    <g id="Icon-RSS" transform="translate(1.200000, 1.200000)">
                        <path d="M18.646875,21.6 L2.953125,21.6 C1.32215625,21.6 0,20.2778438 0,18.646875 L0,2.953125 C0,1.32215625 1.32215625,0 2.953125,0 L18.646875,0 C20.2778438,0 21.6,1.32215625 21.6,2.953125 L21.6,18.646875 C21.6,20.2778438 20.2778438,21.6 18.646875,21.6" id="Fill-1" fill="#EA7819"></path>
                        <path d="M7.35313781,16.2273502 C7.35313781,17.3139314 6.47175656,18.1953127 5.38517531,18.1953127 C4.29855187,18.1953127 3.41717062,17.3142689 3.41717062,16.2273502 C3.41717062,15.1401361 4.29825656,14.2593877 5.38488,14.2593877 C6.47146125,14.2593877 7.35313781,15.1401361 7.35313781,16.2273502 L7.35313781,16.2273502 Z M3.42404719,6.22899703 C9.99517219,6.22899703 15.3415097,11.6045283 15.3415097,18.2123142 L18.1827956,18.2123142 C18.1827956,10.0374736 11.5616363,3.38771109 3.42404719,3.38771109 L3.42404719,6.22899703 Z M3.41957531,11.2661423 C5.26333781,11.2661423 6.99661125,11.9863673 8.29915031,13.2963736 C9.60409406,14.6063798 10.322505,16.3512548 10.322505,18.2087283 L13.1638331,18.2087283 C13.1638331,12.8135377 8.79240656,8.42456109 3.41957531,8.42456109 L3.41957531,11.2661423 L3.41957531,11.2661423 Z" id="Fill-3" fill="#FBFBFB"></path>
                    </g>
                </g>
            </g>
        </g>
    </g>
</svg>