<?xml version="1.0" encoding="UTF-8" standalone="no"?>
<svg width="15px" height="14px" viewBox="0 0 15 14" version="1.1" xmlns="http://www.w3.org/2000/svg" xmlns:xlink="http://www.w3.org/1999/xlink">
    <!-- Generator: sketchtool 39.1 (31720) - http://www.bohemiancoding.com/sketch -->
    <title>3F8F7170-25B9-4E35-88D4-1CE691AA6D92</title>
    <desc>Created with sketchtool.</desc>
    <defs></defs>
    <g id="Index-Blog" stroke="none" stroke-width="1" fill="none" fill-rule="evenodd">
        <g id="1.-Index---Rev" transform="translate(-1193.000000, -143.000000)">
            <g id="Button-Search" transform="translate(1182.000000, 131.000000)">
                <rect id="Rectangle-2638" x="0" y="0" width="36" height="36"></rect>
                <path d="M17.6545455,23.68 C14.7377273,23.68 12.3636364,21.3593333 12.3636364,18.5066667 C12.3636364,15.654 14.7377273,13.3333333 17.6545455,13.3333333 C20.5713636,13.3333333 22.9454545,15.654 22.9454545,18.5066667 C22.9454545,21.3593333 20.5713636,23.68 17.6545455,23.68 M25.7565909,24.2833333 L23.1615909,22.1546667 C23.885,21.1133333 24.3090909,19.858 24.3090909,18.5066667 C24.3090909,14.9186667 21.3240909,12 17.6545455,12 C13.985,12 11,14.9186667 11,18.5066667 C11,22.0946667 13.985,25.0133333 17.6545455,25.0133333 C19.4525,25.0133333 21.0834091,24.31 22.2820455,23.1733333 L24.8804545,25.3053333 C25.0079545,25.41 25.1634091,25.4606667 25.3175,25.4606667 C25.5125,25.4606667 25.7061364,25.38 25.8404545,25.2226667 C26.0825,24.9406667 26.045,24.52 25.7565909,24.2833333" id="Fill-1" fill="#FFFFFF"></path>
            </g>
        </g>
    </g>
</svg>