<?xml version="1.0" encoding="UTF-8" standalone="no"?>
<svg width="19px" height="20px" viewBox="0 0 19 20" version="1.1" xmlns="http://www.w3.org/2000/svg" xmlns:xlink="http://www.w3.org/1999/xlink">
    <!-- Generator: sketchtool 39.1 (31720) - http://www.bohemiancoding.com/sketch -->
    <title>5FF60A22-7784-46BD-BF31-49ADA2F11B2C</title>
    <desc>Created with sketchtool.</desc>
    <defs></defs>
    <g id="Index-Blog" stroke="none" stroke-width="1" fill="none" fill-rule="evenodd">
        <g id="1.-Index---Rev" transform="translate(-1045.000000, -258.000000)">
            <g id="Group-18" transform="translate(876.000000, 199.000000)">
                <g id="Icon-Linkedin" transform="translate(165.500000, 57.000000)">
                    <rect id="Rectangle-7" x="0" y="0" width="24" height="24"></rect>
                    <path d="M3.6,21.6 L7.6,21.6 L7.6,7.45263158 L3.6,7.45263158 L3.6,21.6 Z M17.099,7.45263158 C14.308,7.45263158 13.828,8.48134737 13.6,9.47368421 L13.6,7.45263158 L9.6,7.45263158 L9.6,21.6 L13.6,21.6 L13.6,13.5157895 C13.6,12.2051368 14.303,11.4947368 15.6,11.4947368 C16.866,11.4947368 17.6,12.1899789 17.6,13.5157895 L17.6,21.6 L21.6,21.6 L21.6,14.5263158 C21.6,10.4842105 21.079,7.45263158 17.099,7.45263158 Z M5.6,2.4 C6.705,2.4 7.6,3.30442105 7.6,4.42105263 C7.6,5.53768421 6.705,6.44210526 5.6,6.44210526 C4.495,6.44210526 3.6,5.53768421 3.6,4.42105263 C3.6,3.30442105 4.495,2.4 5.6,2.4 Z" id="Combined-Shape" fill="#007BB5"></path>
                </g>
            </g>
        </g>
    </g>
</svg>