<?xml version="1.0" encoding="UTF-8" standalone="no"?>
<svg width="18px" height="18px" viewBox="0 0 18 18" version="1.1" xmlns="http://www.w3.org/2000/svg" xmlns:xlink="http://www.w3.org/1999/xlink">
    <!-- Generator: sketchtool 39.1 (31720) - http://www.bohemiancoding.com/sketch -->
    <title>AB1F4E01-2AF9-47DF-9D51-23CB4D186669</title>
    <desc>Created with sketchtool.</desc>
    <defs></defs>
    <g id="Index-Blog" stroke="none" stroke-width="1" fill="none" fill-rule="evenodd">
        <g id="1.-Index---Rev" transform="translate(-1177.000000, -1800.000000)">
            <g id="Group-3" transform="translate(876.000000, 1757.000000)">
                <g id="Group-8" transform="translate(1.000000, 28.000000)">
                    <g id="Group-10" transform="translate(265.000000, -1.000000)">
                        <g id="RSS" transform="translate(34.000000, 15.000000)">
                            <rect id="Rectangle-6" x="0" y="0" width="20" height="20"></rect>
                            <g id="Page-1" transform="translate(1.000000, 1.000000)">
                                <path d="M15.5390625,18 L2.4609375,18 C1.10179687,18 0,16.8982031 0,15.5390625 L0,2.4609375 C0,1.10179687 1.10179687,0 2.4609375,0 L15.5390625,0 C16.8982031,0 18,1.10179687 18,2.4609375 L18,15.5390625 C18,16.8982031 16.8982031,18 15.5390625,18" id="Fill-1" fill="#BCBCBC"></path>
                                <path d="M6.12761484,13.5227918 C6.12761484,14.4282762 5.39313047,15.1627605 4.48764609,15.1627605 C3.58212656,15.1627605 2.84764219,14.4285574 2.84764219,13.5227918 C2.84764219,12.6167801 3.58188047,11.882823 4.4874,11.882823 C5.39288437,11.882823 6.12761484,12.6167801 6.12761484,13.5227918 L6.12761484,13.5227918 Z M2.85337266,5.19083086 C8.32931016,5.19083086 12.7845914,9.67044023 12.7845914,15.1769285 L15.1523297,15.1769285 C15.1523297,8.36456133 9.63469688,2.82309258 2.85337266,2.82309258 L2.85337266,5.19083086 Z M2.84964609,9.38845195 C4.38611484,9.38845195 5.83050937,9.98863945 6.91595859,11.0803113 C8.00341172,12.1719832 8.6020875,13.6260457 8.6020875,15.1739402 L10.9698609,15.1739402 C10.9698609,10.677948 7.32700547,7.02046758 2.84964609,7.02046758 L2.84964609,9.38845195 L2.84964609,9.38845195 Z" id="Fill-3" fill="#FBFBFB"></path>
                            </g>
                        </g>
                    </g>
                </g>
            </g>
        </g>
    </g>
</svg>