<?xml version="1.0" encoding="UTF-8" standalone="no"?>
<svg width="16px" height="17px" viewBox="0 0 16 17" version="1.1" xmlns="http://www.w3.org/2000/svg" xmlns:xlink="http://www.w3.org/1999/xlink">
    <!-- Generator: sketchtool 39.1 (31720) - http://www.bohemiancoding.com/sketch -->
    <title>63C10F39-D7BD-4E08-91A3-88B58974B038</title>
    <desc>Created with sketchtool.</desc>
    <defs></defs>
    <g id="Index-Blog" stroke="none" stroke-width="1" fill="none" fill-rule="evenodd">
        <g id="1.-Index---Rev" transform="translate(-1002.000000, -1802.000000)">
            <g id="Group-3" transform="translate(876.000000, 1757.000000)">
                <g id="Group-8" transform="translate(1.000000, 28.000000)">
                    <g id="Group-9" transform="translate(89.000000, -1.000000)">
                        <g id="Icon-Facebook" transform="translate(34.000000, 16.000000)">
                            <rect id="Rectangle-31" x="0" y="0" width="20" height="20"></rect>
                            <path d="M10,18.0793333 L2,18.0793333 L2,2.00466667 L18,2.00466667 L18,18.0793333 L12.6666667,18.0793333 L12.6666667,12.7206667 L15.3333333,12.7206667 L15.3333333,10.042 L12.6666667,10.042 L12.6666667,8.06866667 C12.6666667,6.694 15.3333333,7.36333333 15.3333333,7.36333333 L15.3333333,4.68466667 C12.6666667,4.68466667 11.952,4.74066667 11.3333333,5.354 C10.7146667,5.96733333 10,6.95666667 10,8.06866667 L10,10.042 L7.33333333,10.042 L7.33333333,12.7206667 L10,12.7206667 C10,12.7206667 9.85066667,15.9566667 10,18.0793333" id="Page-1" fill="#BDBDBD"></path>
                        </g>
                    </g>
                </g>
            </g>
        </g>
    </g>
</svg>