<?xml version="1.0" encoding="UTF-8" standalone="no"?>
<svg width="20px" height="20px" viewBox="0 0 20 20" version="1.1" xmlns="http://www.w3.org/2000/svg" xmlns:xlink="http://www.w3.org/1999/xlink">
    <!-- Generator: sketchtool 39.1 (31720) - http://www.bohemiancoding.com/sketch -->
    <title>E64CFEEB-593E-4C9A-BF71-427882B53BE2</title>
    <desc>Created with sketchtool.</desc>
    <defs></defs>
    <g id="Index-Blog" stroke="none" stroke-width="1" fill="none" fill-rule="evenodd">
        <g id="1.-Index---Rev" transform="translate(-1111.000000, -258.000000)">
            <g id="Group-18" transform="translate(876.000000, 199.000000)">
                <g id="Icon-Vidio" transform="translate(233.250000, 57.000000)">
                    <rect id="Rectangle-30" x="0" y="0" width="24" height="24"></rect>
                    <path d="M16.4498709,4.45738336 C16.4498709,5.60286807 17.3308288,6.51476672 18.4375675,6.51476672 C18.5281052,6.51476672 18.6182672,6.51476672 18.7313454,6.49117985 C18.8440479,6.79514607 18.8895046,7.14590558 18.8895046,7.5434584 C18.8895046,10.51236 15.9753933,15.6558184 12.3839399,18.1571674 L13.0616577,12.5697433 C13.6939188,7.51987153 11.9323785,4.20021044 7.79845034,4.20021044 C4.79417704,4.20021044 2.4,6.70155947 2.4,9.76442808 C2.4,12.8501227 4.81709321,15.4686452 8.15984973,14.790713 L7.50504813,11.4710519 C6.37539328,11.5410517 5.26865461,10.51236 5.26865461,9.08649592 C5.26865461,7.77704445 6.30777178,6.70155947 7.57266964,6.70155947 C8.70194881,6.70155947 10.3962432,7.51987153 9.92176567,11.4942584 L8.72486499,21.2664489 L11.4804414,21.2664489 C16.9694294,18.5779267 21.6,11.4006718 21.6,6.63155974 C21.6,4.24700374 20.4027236,2.4 18.4375675,2.4 C17.3308288,2.4 16.4498709,3.31189865 16.4498709,4.45738336" id="logo" fill="#EF423C"></path>
                </g>
            </g>
        </g>
    </g>
</svg>