<?xml version="1.0" encoding="UTF-8" standalone="no"?>
<svg width="19px" height="14px" viewBox="0 0 19 14" version="1.1" xmlns="http://www.w3.org/2000/svg" xmlns:xlink="http://www.w3.org/1999/xlink">
    <!-- Generator: sketchtool 39.1 (31720) - http://www.bohemiancoding.com/sketch -->
    <title>B3A642E7-6CAD-46ED-8B2E-072F5B0A9934</title>
    <desc>Created with sketchtool.</desc>
    <defs></defs>
    <g id="Index-Blog" stroke="none" stroke-width="1" fill="none" fill-rule="evenodd">
        <g id="1.-Index---Rev" transform="translate(-903.000000, -1809.000000)">
            <g id="Group-3" transform="translate(876.000000, 1757.000000)">
                <g id="Group-8" transform="translate(1.000000, 28.000000)">
                    <g id="Icon-Twitter" transform="translate(25.000000, 20.000000)">
                        <rect id="Rectangle-32" x="0" y="0" width="20" height="20"></rect>
                        <path d="M17.1310869,6.1296009 C17.9051548,5.70904434 18.500029,5.04224887 18.7804,4.24867692 C18.0550923,4.63753937 17.2529873,4.92034842 16.3984652,5.07394299 C15.7146036,4.41202353 14.7394,4 13.660581,4 C11.5882733,4 9.90848507,5.52253665 9.90848507,7.39980362 C9.90848507,7.66676561 9.94139819,7.92641357 10.0060054,8.1750905 C6.88779186,8.03368597 4.1243086,6.67937195 2.27385973,4.62169231 C1.95082353,5.12392217 1.76553484,5.70782534 1.76553484,6.33195566 C1.76553484,7.51195204 2.4274543,8.5529819 3.43435204,9.16248416 C2.81997376,9.1441991 2.24094661,8.99182353 1.73505973,8.73705158 L1.73505973,8.77971674 C1.73505973,10.4278109 3.02842353,11.801629 4.7447819,12.1149131 C4.42905973,12.1917104 4.0974905,12.2331566 3.75616923,12.2331566 C3.51480633,12.2331566 3.27953846,12.2124335 3.05036561,12.1722063 C3.52699638,13.5240824 4.91300452,14.5066 6.55500362,14.5346371 C5.27017285,15.4464525 3.65255385,15.9901285 1.89596833,15.9901285 C1.5924362,15.9901285 1.29378009,15.9742814 1,15.9425873 C2.66028416,16.9080389 4.63263348,17.47 6.75126335,17.47 C13.650829,17.47 17.424867,12.2880118 17.424867,7.79476109 C17.424867,7.64726154 17.42121,7.500981 17.4138959,7.35470045 C18.1465176,6.87563167 18.782838,6.27588145 19.2850679,5.59445792 C18.6133964,5.86507692 17.8893077,6.0479276 17.1310869,6.1296009" id="Fill-1" fill="#1ACBFE"></path>
                    </g>
                </g>
            </g>
        </g>
    </g>
</svg>