<?xml version="1.0" encoding="UTF-8" standalone="no"?>
<svg width="24px" height="24px" viewBox="0 0 24 24" version="1.1" xmlns="http://www.w3.org/2000/svg" xmlns:xlink="http://www.w3.org/1999/xlink">
    <!-- Generator: sketchtool 39.1 (31720) - http://www.bohemiancoding.com/sketch -->
    <title>A88280A8-B0A7-4D3C-AA5F-24444EBD5D48</title>
    <desc>Created with sketchtool.</desc>
    <defs></defs>
    <g id="Index-Blog" stroke="none" stroke-width="1" fill="none" fill-rule="evenodd">
        <g id="1.-Index---Rev" transform="translate(-479.000000, -259.000000)">
            <g id="List-Article" transform="translate(50.000000, 147.000000)">
                <g id="Group-4" transform="translate(429.000000, 112.000000)">
                    <circle id="Oval-3" fill="#F8F8F8" cx="12" cy="12" r="12"></circle>
                    <path d="M18.48,11.2625 C18.48,8.8326 16.61736,7 14.32,7 L10.16,7 C7.86264,7 6,8.9701 6,11.4 C6,13.8299 7.86264,15.8 10.16,15.8 L12.45112,15.8 C13.05224,15.8 13.02,16.1267 13.28,17.1233 C13.54,18.12045 14.30388,17.1409 14.30388,17.1409 L15.89456,15.53985 C15.89456,15.53985 16.90752,14.66535 17.11552,14.469 C17.95324,13.6781 18.48,12.55335 18.48,11.2625 L18.48,11.2625 Z" id="Stroke-3" stroke="#ABABAB" stroke-linecap="round" stroke-linejoin="round"></path>
                </g>
            </g>
        </g>
    </g>
</svg>